<svg width="1440" height="1024" viewBox="0 0 1440 1024" fill="none" xmlns="http://www.w3.org/2000/svg">
<path d="M136 117C136 117 136.883 125.24 140.321 128.679C143.76 132.117 152 133 152 133C152 133 143.76 133.883 140.321 137.321C136.883 140.76 136 149 136 149C136 149 135.117 140.76 131.679 137.321C128.24 133.883 120 133 120 133C120 133 128.24 132.117 131.679 128.679C135.117 125.24 136 117 136 117Z" fill="white"/>
<path d="M261 252C261 252 261.883 260.24 265.321 263.679C268.76 267.117 277 268 277 268C277 268 268.76 268.883 265.321 272.321C261.883 275.76 261 284 261 284C261 284 260.117 275.76 256.679 272.321C253.24 268.883 245 268 245 268C245 268 253.24 267.117 256.679 263.679C260.117 260.24 261 252 261 252Z" fill="white"/>
<path d="M647 71C647 71 647.883 79.2399 651.321 82.6785C654.76 86.1172 663 87 663 87C663 87 654.76 87.8828 651.321 91.3215C647.883 94.7601 647 103 647 103C647 103 646.117 94.7601 642.679 91.3215C639.24 87.8828 631 87 631 87C631 87 639.24 86.1172 642.679 82.6785C646.117 79.2399 647 71 647 71Z" fill="white"/>
<path d="M569 365C569 365 569.883 373.24 573.321 376.679C576.76 380.117 585 381 585 381C585 381 576.76 381.883 573.321 385.321C569.883 388.76 569 397 569 397C569 397 568.117 388.76 564.679 385.321C561.24 381.883 553 381 553 381C553 381 561.24 380.117 564.679 376.679C568.117 373.24 569 365 569 365Z" fill="white"/>
<path d="M44 675C44 675 44.8828 683.24 48.3215 686.679C51.7601 690.117 60 691 60 691C60 691 51.7601 691.883 48.3215 695.321C44.8828 698.76 44 707 44 707C44 707 43.1172 698.76 39.6785 695.321C36.2399 691.883 28 691 28 691C28 691 36.2399 690.117 39.6785 686.679C43.1172 683.24 44 675 44 675Z" fill="white"/>
<path d="M277 723C277 723 277.883 731.24 281.321 734.679C284.76 738.117 293 739 293 739C293 739 284.76 739.883 281.321 743.321C277.883 746.76 277 755 277 755C277 755 276.117 746.76 272.679 743.321C269.24 739.883 261 739 261 739C261 739 269.24 738.117 272.679 734.679C276.117 731.24 277 723 277 723Z" fill="white"/>
<path d="M168 891C168 891 168.883 899.24 172.321 902.679C175.76 906.117 184 907 184 907C184 907 175.76 907.883 172.321 911.321C168.883 914.76 168 923 168 923C168 923 167.117 914.76 163.679 911.321C160.24 907.883 152 907 152 907C152 907 160.24 906.117 163.679 902.679C167.117 899.24 168 891 168 891Z" fill="white"/>
<path d="M70 616C70 616 70.4966 620.635 72.4308 622.569C74.3651 624.503 79 625 79 625C79 625 74.3651 625.497 72.4308 627.431C70.4966 629.365 70 634 70 634C70 634 69.5034 629.365 67.5692 627.431C65.6349 625.497 61 625 61 625C61 625 65.6349 624.503 67.5692 622.569C69.5034 620.635 70 616 70 616Z" fill="white"/>
<path d="M423 337C423 337 423.497 341.635 425.431 343.569C427.365 345.503 432 346 432 346C432 346 427.365 346.497 425.431 348.431C423.497 350.365 423 355 423 355C423 355 422.503 350.365 420.569 348.431C418.635 346.497 414 346 414 346C414 346 418.635 345.503 420.569 343.569C422.503 341.635 423 337 423 337Z" fill="white"/>
<path d="M654 755C654 755 654.497 759.635 656.431 761.569C658.365 763.503 663 764 663 764C663 764 658.365 764.497 656.431 766.431C654.497 768.365 654 773 654 773C654 773 653.503 768.365 651.569 766.431C649.635 764.497 645 764 645 764C645 764 649.635 763.503 651.569 761.569C653.503 759.635 654 755 654 755Z" fill="white"/>
<path d="M61 80C61 80 61.4966 84.6349 63.4308 86.5692C65.3651 88.5034 70 89 70 89C70 89 65.3651 89.4966 63.4308 91.4308C61.4966 93.3651 61 98 61 98C61 98 60.5034 93.3651 58.5692 91.4308C56.6349 89.4966 52 89 52 89C52 89 56.6349 88.5034 58.5692 86.5692C60.5034 84.6349 61 80 61 80Z" fill="white"/>
<path d="M242 128C242 128 242.497 132.635 244.431 134.569C246.365 136.503 251 137 251 137C251 137 246.365 137.497 244.431 139.431C242.497 141.365 242 146 242 146C242 146 241.503 141.365 239.569 139.431C237.635 137.497 233 137 233 137C233 137 237.635 136.503 239.569 134.569C241.503 132.635 242 128 242 128Z" fill="white"/>
<path d="M109 168C109 168 109.497 172.635 111.431 174.569C113.365 176.503 118 177 118 177C118 177 113.365 177.497 111.431 179.431C109.497 181.365 109 186 109 186C109 186 108.503 181.365 106.569 179.431C104.635 177.497 100 177 100 177C100 177 104.635 176.503 106.569 174.569C108.503 172.635 109 168 109 168Z" fill="white"/>
<path d="M1383 914C1383 914 1383.5 918.635 1385.43 920.569C1387.37 922.503 1392 923 1392 923C1392 923 1387.37 923.497 1385.43 925.431C1383.5 927.365 1383 932 1383 932C1383 932 1382.5 927.365 1380.57 925.431C1378.63 923.497 1374 923 1374 923C1374 923 1378.63 922.503 1380.57 920.569C1382.5 918.635 1383 914 1383 914Z" fill="white"/>
<path d="M1195 750C1195 750 1195.5 754.635 1197.43 756.569C1199.37 758.503 1204 759 1204 759C1204 759 1199.37 759.497 1197.43 761.431C1195.5 763.365 1195 768 1195 768C1195 768 1194.5 763.365 1192.57 761.431C1190.63 759.497 1186 759 1186 759C1186 759 1190.63 758.503 1192.57 756.569C1194.5 754.635 1195 750 1195 750Z" fill="white"/>
<path d="M1383 576C1383 576 1383.5 580.635 1385.43 582.569C1387.37 584.503 1392 585 1392 585C1392 585 1387.37 585.497 1385.43 587.431C1383.5 589.365 1383 594 1383 594C1383 594 1382.5 589.365 1380.57 587.431C1378.63 585.497 1374 585 1374 585C1374 585 1378.63 584.503 1380.57 582.569C1382.5 580.635 1383 576 1383 576Z" fill="white"/>
<path d="M1152 162C1152 162 1152.5 166.635 1154.43 168.569C1156.37 170.503 1161 171 1161 171C1161 171 1156.37 171.497 1154.43 173.431C1152.5 175.365 1152 180 1152 180C1152 180 1151.5 175.365 1149.57 173.431C1147.63 171.497 1143 171 1143 171C1143 171 1147.63 170.503 1149.57 168.569C1151.5 166.635 1152 162 1152 162Z" fill="white"/>
<path d="M1333 210C1333 210 1333.5 214.635 1335.43 216.569C1337.37 218.503 1342 219 1342 219C1342 219 1337.37 219.497 1335.43 221.431C1333.5 223.365 1333 228 1333 228C1333 228 1332.5 223.365 1330.57 221.431C1328.63 219.497 1324 219 1324 219C1324 219 1328.63 218.503 1330.57 216.569C1332.5 214.635 1333 210 1333 210Z" fill="white"/>
<path d="M1200 250C1200 250 1200.5 254.635 1202.43 256.569C1204.37 258.503 1209 259 1209 259C1209 259 1204.37 259.497 1202.43 261.431C1200.5 263.365 1200 268 1200 268C1200 268 1199.5 263.365 1197.57 261.431C1195.63 259.497 1191 259 1191 259C1191 259 1195.63 258.503 1197.57 256.569C1199.5 254.635 1200 250 1200 250Z" fill="white"/>
<path d="M562 64C562 64 562.497 68.6349 564.431 70.5692C566.365 72.5034 571 73 571 73C571 73 566.365 73.4966 564.431 75.4308C562.497 77.3651 562 82 562 82C562 82 561.503 77.3651 559.569 75.4308C557.635 73.4966 553 73 553 73C553 73 557.635 72.5034 559.569 70.5692C561.503 68.6349 562 64 562 64Z" fill="white"/>
<path d="M729 46C729 46 729.497 50.6349 731.431 52.5692C733.365 54.5034 738 55 738 55C738 55 733.365 55.4966 731.431 57.4308C729.497 59.3651 729 64 729 64C729 64 728.503 59.3651 726.569 57.4308C724.635 55.4966 720 55 720 55C720 55 724.635 54.5034 726.569 52.5692C728.503 50.6349 729 46 729 46Z" fill="white"/>
<path d="M610 152C610 152 610.497 156.635 612.431 158.569C614.365 160.503 619 161 619 161C619 161 614.365 161.497 612.431 163.431C610.497 165.365 610 170 610 170C610 170 609.503 165.365 607.569 163.431C605.635 161.497 601 161 601 161C601 161 605.635 160.503 607.569 158.569C609.503 156.635 610 152 610 152Z" fill="white"/>
<path d="M631 691C631 691 631.883 699.24 635.321 702.679C638.76 706.117 647 707 647 707C647 707 638.76 707.883 635.321 711.321C631.883 714.76 631 723 631 723C631 723 630.117 714.76 626.679 711.321C623.24 707.883 615 707 615 707C615 707 623.24 706.117 626.679 702.679C630.117 699.24 631 691 631 691Z" fill="white"/>
<path d="M847 891C847 891 847.883 899.24 851.321 902.679C854.76 906.117 863 907 863 907C863 907 854.76 907.883 851.321 911.321C847.883 914.76 847 923 847 923C847 923 846.117 914.76 842.679 911.321C839.24 907.883 831 907 831 907C831 907 839.24 906.117 842.679 902.679C846.117 899.24 847 891 847 891Z" fill="white"/>
<path d="M1021 381C1021 381 1021.88 389.24 1025.32 392.679C1028.76 396.117 1037 397 1037 397C1037 397 1028.76 397.883 1025.32 401.321C1021.88 404.76 1021 413 1021 413C1021 413 1020.12 404.76 1016.68 401.321C1013.24 397.883 1005 397 1005 397C1005 397 1013.24 396.117 1016.68 392.679C1020.12 389.24 1021 381 1021 381Z" fill="white"/>
<path d="M386 355C386 355 386.883 363.24 390.321 366.679C393.76 370.117 402 371 402 371C402 371 393.76 371.883 390.321 375.321C386.883 378.76 386 387 386 387C386 387 385.117 378.76 381.679 375.321C378.24 371.883 370 371 370 371C370 371 378.24 370.117 381.679 366.679C385.117 363.24 386 355 386 355Z" fill="white"/>
<path d="M1358 68C1358 68 1358.88 76.2399 1362.32 79.6785C1365.76 83.1172 1374 84 1374 84C1374 84 1365.76 84.8828 1362.32 88.3215C1358.88 91.7601 1358 100 1358 100C1358 100 1357.12 91.7601 1353.68 88.3215C1350.24 84.8828 1342 84 1342 84C1342 84 1350.24 83.1172 1353.68 79.6785C1357.12 76.2399 1358 68 1358 68Z" fill="white"/>
<path d="M1232 172C1232 172 1232.88 180.24 1236.32 183.679C1239.76 187.117 1248 188 1248 188C1248 188 1239.76 188.883 1236.32 192.321C1232.88 195.76 1232 204 1232 204C1232 204 1231.12 195.76 1227.68 192.321C1224.24 188.883 1216 188 1216 188C1216 188 1224.24 187.117 1227.68 183.679C1231.12 180.24 1232 172 1232 172Z" fill="white"/>
<path d="M866 659C866 659 866.883 667.24 870.321 670.679C873.76 674.117 882 675 882 675C882 675 873.76 675.883 870.321 679.321C866.883 682.76 866 691 866 691C866 691 865.117 682.76 861.679 679.321C858.24 675.883 850 675 850 675C850 675 858.24 674.117 861.679 670.679C865.117 667.24 866 659 866 659Z" fill="white"/>
<path d="M1083 707C1083 707 1083.88 715.24 1087.32 718.679C1090.76 722.117 1099 723 1099 723C1099 723 1090.76 723.883 1087.32 727.321C1083.88 730.76 1083 739 1083 739C1083 739 1082.12 730.76 1078.68 727.321C1075.24 723.883 1067 723 1067 723C1067 723 1075.24 722.117 1078.68 718.679C1082.12 715.24 1083 707 1083 707Z" fill="white"/>
<path d="M1342 618C1342 618 1342.88 626.24 1346.32 629.679C1349.76 633.117 1358 634 1358 634C1358 634 1349.76 634.883 1346.32 638.321C1342.88 641.76 1342 650 1342 650C1342 650 1341.12 641.76 1337.68 638.321C1334.24 634.883 1326 634 1326 634C1326 634 1334.24 633.117 1337.68 629.679C1341.12 626.24 1342 618 1342 618Z" fill="white"/>
</svg>
